<?xml version="1.0" encoding="utf-8"?>
<!-- Generator: Adobe Illustrator 19.0.0, SVG Export Plug-In . SVG Version: 6.00 Build 0)  -->
<svg version="1.1" id="Layer_1" xmlns="http://www.w3.org/2000/svg" xmlns:xlink="http://www.w3.org/1999/xlink" x="0px" y="0px"
	 viewBox="0 0 177.5 93.5" style="enable-background:new 0 0 177.5 93.5;" xml:space="preserve">
<style type="text/css">
	.st0{fill:#C1A67F;}
</style>
<path id="XMLID_543_" class="st0" d="M65,68.9c0-0.3,0-0.5,0.1-0.8c0.1-0.2,0.2-0.5,0.4-0.7c0.2-0.2,0.4-0.4,0.7-0.5
	c0.3-0.1,0.6-0.2,0.9-0.2c0.3,0,0.5,0.1,0.8,0.2c0.2,0.1,0.4,0.3,0.6,0.5c0.2,0.2,0.3,0.4,0.5,0.7c0.1,0.3,0.2,0.5,0.2,0.8
	c0,0.3,0,0.5-0.1,0.8c-0.1,0.2-0.2,0.5-0.4,0.7c-0.2,0.2-0.4,0.4-0.7,0.5c-0.3,0.1-0.6,0.2-0.9,0.2c-0.3,0-0.5-0.1-0.8-0.2
	c-0.2-0.1-0.4-0.3-0.6-0.5c-0.2-0.2-0.3-0.4-0.5-0.7C65.1,69.5,65,69.2,65,68.9z M66.2,70c0.1,0.1,0.3,0.3,0.4,0.3
	c0.2,0.1,0.3,0.1,0.5,0.1c0.2,0,0.3,0,0.5-0.1c0.2-0.1,0.3-0.2,0.4-0.3c0.1-0.1,0.2-0.3,0.3-0.4c0.1-0.2,0.1-0.4,0.1-0.6
	c0-0.2-0.1-0.4-0.2-0.6c-0.1-0.2-0.2-0.4-0.4-0.6c-0.1-0.1-0.3-0.3-0.5-0.3c-0.2-0.1-0.3-0.1-0.5-0.1c-0.2,0-0.3,0-0.5,0.1
	c-0.2,0.1-0.3,0.2-0.4,0.3c-0.1,0.1-0.2,0.3-0.3,0.4c-0.1,0.2-0.1,0.4-0.1,0.6c0,0.2,0.1,0.4,0.2,0.6C66,69.7,66.1,69.9,66.2,70z"/>
<path id="XMLID_546_" class="st0" d="M70.2,66.1L70,65.5l0.7-0.2l-0.2-0.6c-0.1-0.3-0.1-0.6,0-0.8c0.1-0.2,0.4-0.4,0.7-0.5
	c0.1,0,0.1,0,0.2-0.1c0.1,0,0.2,0,0.2,0l0.2,0.6c-0.1,0-0.1,0-0.2,0c-0.1,0-0.1,0-0.2,0.1c-0.2,0.1-0.3,0.1-0.3,0.2
	c-0.1,0.1-0.1,0.2,0,0.4l0.2,0.5l0.8-0.3l0.2,0.6l-0.8,0.3l1.1,3.3l-0.6,0.2l-1.1-3.3L70.2,66.1z"/>
<path id="XMLID_548_" class="st0" d="M80.3,61.3c0.6-0.1,1,0,1.4,0.2s0.5,0.6,0.6,1.2c0.1,0.5,0,1-0.2,1.3c-0.2,0.3-0.6,0.6-1.2,0.6
	l-1.7,0.3l0.4,2.3l-0.7,0.1l-0.9-5.6L80.3,61.3z M80.5,64c0.4-0.1,0.7-0.2,0.9-0.4c0.2-0.2,0.2-0.5,0.2-0.8
	c-0.1-0.3-0.2-0.6-0.4-0.7c-0.2-0.1-0.5-0.2-1-0.1l-1.5,0.2l0.3,2.1L80.5,64z"/>
<path id="XMLID_551_" class="st0" d="M85.6,60.7l0.2,5l3-0.1l0,0.6l-3.8,0.2l-0.3-5.7L85.6,60.7z"/>
<path id="XMLID_553_" class="st0" d="M95.1,60.9l0,0.6l-3.2-0.2l-0.1,1.8l2.9,0.2l0,0.6l-2.9-0.2l-0.1,2l3.2,0.2l0,0.6l-3.9-0.3
	l0.4-5.7L95.1,60.9z"/>
<path id="XMLID_555_" class="st0" d="M98.8,61.4l2.1,5.1l0,0l0.9-4.5l0.7,0.1l-1.1,5.6l-0.8-0.2l-2-5l0,0L97.6,67l-0.7-0.1l1.1-5.6
	L98.8,61.4z"/>
<path id="XMLID_557_" class="st0" d="M104.7,63.4l0.2-0.6l4.3,1.4l-0.2,0.6l-1.8-0.6l-1.6,4.8l-0.7-0.2l1.6-4.8L104.7,63.4z"/>
<path id="XMLID_559_" class="st0" d="M111.4,71.3l-0.7-0.3l1-2.1l-0.6-4l0.8,0.4l0.4,3.2l2.6-1.8l0.8,0.4l-3.4,2.1L111.4,71.3z"/>
<path id="XMLID_515_" class="st0" d="M53.2,69.7l-0.6,0.5l-1.4-1.8L47.4,67l0.7-0.5l3,1.1l-0.3-3.2l0.7-0.5l0.3,4L53.2,69.7z"/>
<path id="XMLID_517_" class="st0" d="M54.6,63.9c-0.1-0.4-0.1-0.7,0-1.1c0.1-0.4,0.2-0.7,0.4-1c0.2-0.3,0.5-0.6,0.9-0.8
	c0.4-0.2,0.8-0.4,1.1-0.4c0.4,0,0.7,0,1.1,0.1c0.3,0.1,0.6,0.3,0.9,0.6c0.3,0.3,0.5,0.5,0.7,0.9c0.2,0.3,0.3,0.7,0.4,1.1
	c0.1,0.4,0.1,0.7,0,1.1c-0.1,0.4-0.2,0.7-0.4,1s-0.5,0.6-0.9,0.8s-0.8,0.4-1.1,0.4c-0.4,0-0.7,0-1.1-0.1c-0.3-0.1-0.6-0.3-0.9-0.6
	c-0.3-0.3-0.5-0.5-0.7-0.9C54.8,64.6,54.6,64.3,54.6,63.9z M56.2,65.2c0.2,0.2,0.4,0.4,0.7,0.5c0.2,0.1,0.5,0.2,0.8,0.2
	c0.3,0,0.6-0.1,0.9-0.3c0.3-0.2,0.5-0.4,0.7-0.6c0.1-0.2,0.2-0.5,0.3-0.8c0-0.3,0-0.5-0.1-0.8c-0.1-0.3-0.2-0.5-0.3-0.8
	c-0.1-0.2-0.3-0.5-0.5-0.7c-0.2-0.2-0.4-0.4-0.7-0.5c-0.2-0.1-0.5-0.2-0.8-0.1c-0.3,0-0.6,0.1-0.9,0.3s-0.5,0.4-0.7,0.6
	c-0.1,0.2-0.2,0.5-0.3,0.8c0,0.3,0,0.5,0.1,0.8c0.1,0.3,0.2,0.5,0.3,0.8C55.8,64.8,55.9,65,56.2,65.2z"/>
<path id="XMLID_520_" class="st0" d="M66.6,61.6c-0.2,0.5-0.6,0.9-1.3,1.2c-0.7,0.3-1.3,0.4-1.8,0.2c-0.5-0.2-0.9-0.6-1.2-1.3
	l-1.5-3.3l0.7-0.3l1.5,3.3c0.2,0.5,0.5,0.8,0.8,0.9c0.4,0.1,0.8,0.1,1.2-0.1c0.4-0.2,0.7-0.5,0.9-0.8c0.1-0.3,0.1-0.7-0.1-1.2
	l-1.5-3.3l0.7-0.3l1.4,3.3C66.8,60.6,66.9,61.1,66.6,61.6z"/>
<path id="XMLID_522_" class="st0" d="M70.7,54.7c0.5-0.2,1-0.2,1.3,0c0.4,0.2,0.6,0.5,0.8,0.9c0.1,0.3,0.1,0.6,0,0.9
	c-0.1,0.3-0.3,0.5-0.6,0.7l0,0c0.2,0,0.3,0,0.4,0c0.1,0,0.2,0.1,0.3,0.2c0.1,0.1,0.2,0.2,0.2,0.3c0.1,0.1,0.1,0.2,0.2,0.4
	c0.1,0.1,0.1,0.3,0.1,0.4c0,0.1,0.1,0.3,0.2,0.4c0.1,0.1,0.1,0.2,0.2,0.3c0.1,0.1,0.2,0.2,0.3,0.3l-0.8,0.2c-0.1,0-0.1-0.1-0.2-0.2
	c0-0.1-0.1-0.2-0.1-0.3c0-0.1-0.1-0.2-0.1-0.4c0-0.1-0.1-0.3-0.2-0.4c-0.1-0.1-0.1-0.2-0.2-0.4s-0.1-0.2-0.2-0.3
	c-0.1-0.1-0.2-0.1-0.3-0.1c-0.1,0-0.3,0-0.4,0l-1.8,0.5l0.7,2.3l-0.7,0.2l-1.6-5.4L70.7,54.7z M71.6,57.1c0.1-0.1,0.3-0.2,0.4-0.3
	c0.1-0.1,0.2-0.2,0.2-0.4s0-0.3,0-0.5c-0.1-0.3-0.2-0.5-0.4-0.6c-0.2-0.1-0.5-0.1-0.8,0l-1.8,0.5l0.6,1.9l1.5-0.5
	C71.3,57.2,71.5,57.2,71.6,57.1z"/>
<path id="XMLID_525_" class="st0" d="M79.5,54.4c0.1-0.4,0.2-0.7,0.4-1c0.2-0.3,0.5-0.5,0.8-0.8c0.3-0.2,0.7-0.3,1.2-0.4
	c0.4-0.1,0.8,0,1.2,0.1c0.4,0.1,0.7,0.3,0.9,0.6c0.3,0.2,0.5,0.5,0.6,0.9c0.2,0.3,0.3,0.7,0.3,1.1c0,0.4,0,0.8,0,1.1
	c-0.1,0.4-0.2,0.7-0.4,1c-0.2,0.3-0.5,0.5-0.8,0.7c-0.3,0.2-0.7,0.3-1.2,0.4c-0.4,0.1-0.9,0-1.2-0.1c-0.4-0.1-0.7-0.3-0.9-0.6
	c-0.3-0.2-0.5-0.5-0.6-0.9c-0.2-0.3-0.3-0.7-0.3-1.1C79.4,55.2,79.4,54.8,79.5,54.4z M80.4,56.3c0.1,0.3,0.2,0.5,0.4,0.7
	c0.2,0.2,0.4,0.4,0.7,0.5c0.3,0.1,0.6,0.1,0.9,0.1c0.3,0,0.6-0.1,0.9-0.3c0.2-0.2,0.4-0.4,0.5-0.6s0.2-0.5,0.3-0.8
	c0-0.3,0-0.6,0-0.9c0-0.3-0.1-0.6-0.2-0.8c-0.1-0.3-0.2-0.5-0.4-0.7c-0.2-0.2-0.4-0.4-0.7-0.5c-0.3-0.1-0.6-0.1-0.9-0.1
	c-0.3,0-0.6,0.1-0.9,0.3c-0.2,0.2-0.4,0.4-0.5,0.6c-0.1,0.2-0.2,0.5-0.3,0.8c0,0.3,0,0.6,0,0.9C80.2,55.8,80.3,56,80.4,56.3z"/>
<path id="XMLID_472_" class="st0" d="M91.8,57.7l-1.2-4.8h0l-1.4,4.7l-0.8,0l-1.4-5.7l0.8,0l1,4.7h0l1.4-4.7l0.8,0l1.2,4.7h0
	l1.2-4.7l0.8,0l-1.6,5.7L91.8,57.7z"/>
<path id="XMLID_470_" class="st0" d="M98,52.5l2.3,5l0,0l0.7-4.6l0.7,0.1l-0.9,5.6l-0.8-0.1l-2.3-5l0,0L97,58.1L96.3,58l0.9-5.6
	L98,52.5z"/>
<path id="XMLID_468_" class="st0" d="M109.5,55.1l-0.8,2.3l2.8,1l0.8-2.3l0.7,0.2l-1.8,5.4l-0.7-0.2l0.8-2.5l-2.8-1l-0.8,2.5
	l-0.7-0.2l1.8-5.4L109.5,55.1z"/>
<path id="XMLID_458_" class="st0" d="M115.3,59.1c0.3-0.3,0.5-0.5,0.9-0.6c0.3-0.1,0.7-0.2,1.1-0.2c0.4,0,0.8,0.1,1.2,0.3
	c0.4,0.2,0.7,0.4,1,0.7c0.2,0.3,0.4,0.6,0.5,1c0.1,0.3,0.1,0.7,0,1.1c-0.1,0.4-0.2,0.7-0.3,1.1c-0.2,0.3-0.4,0.7-0.6,0.9
	c-0.3,0.3-0.6,0.5-0.9,0.6c-0.3,0.1-0.7,0.2-1.1,0.2c-0.4,0-0.8-0.1-1.2-0.3c-0.4-0.2-0.7-0.4-1-0.7c-0.2-0.3-0.4-0.6-0.5-1
	c-0.1-0.3-0.1-0.7,0-1.1c0.1-0.4,0.2-0.7,0.3-1.1S115,59.3,115.3,59.1z M115,61.1c-0.1,0.3-0.1,0.6,0,0.8c0,0.3,0.2,0.5,0.3,0.8
	c0.2,0.2,0.4,0.4,0.7,0.6c0.3,0.2,0.6,0.2,0.9,0.2c0.3,0,0.5-0.1,0.8-0.2c0.2-0.1,0.5-0.3,0.6-0.5c0.2-0.2,0.3-0.5,0.5-0.7
	c0.1-0.3,0.2-0.5,0.3-0.8c0.1-0.3,0.1-0.6,0-0.8c0-0.3-0.2-0.5-0.3-0.7s-0.4-0.4-0.7-0.6c-0.3-0.2-0.6-0.2-0.9-0.2
	c-0.3,0-0.5,0.1-0.8,0.2c-0.2,0.1-0.5,0.3-0.6,0.5c-0.2,0.2-0.3,0.5-0.5,0.7C115.2,60.6,115.1,60.8,115,61.1z"/>
<path id="XMLID_537_" class="st0" d="M125.6,62.8c0.5,0.3,0.7,0.6,0.9,1c0.1,0.4,0,0.8-0.2,1.2c-0.2,0.3-0.4,0.5-0.7,0.6
	c-0.3,0.1-0.6,0.1-0.9,0l0,0c0.1,0.1,0.2,0.2,0.3,0.4c0,0.1,0.1,0.2,0.1,0.4c0,0.1,0,0.2-0.1,0.4c0,0.1-0.1,0.2-0.2,0.4
	c-0.1,0.1-0.1,0.2-0.2,0.4c-0.1,0.1-0.1,0.2-0.2,0.4c-0.1,0.1-0.1,0.3-0.1,0.4c0,0.1,0,0.3,0,0.4l-0.7-0.5c0-0.1,0-0.2,0-0.3
	c0-0.1,0.1-0.2,0.2-0.3c0.1-0.1,0.1-0.2,0.2-0.3c0.1-0.1,0.1-0.3,0.2-0.4c0.1-0.1,0.1-0.3,0.1-0.4c0-0.1,0.1-0.2,0-0.4
	c0-0.1,0-0.2-0.1-0.3c-0.1-0.1-0.2-0.2-0.3-0.3l-1.6-1l-1.3,2l-0.6-0.4l3.1-4.8L125.6,62.8z M124.4,65c0.1,0.1,0.3,0.1,0.4,0.1
	c0.1,0,0.3,0,0.4-0.1c0.1-0.1,0.3-0.2,0.4-0.4c0.2-0.2,0.2-0.5,0.2-0.7c0-0.2-0.2-0.5-0.5-0.6l-1.6-1l-1.1,1.7l1.3,0.9
	C124.1,64.9,124.2,65,124.4,65z"/>
<path id="XMLID_540_" class="st0" d="M130.3,66.1l-0.6,5.5l0,0l2.9-3.6l0.6,0.5l-3.6,4.4l-0.6-0.5l0.6-5.4l0,0l-2.9,3.5l-0.6-0.5
	l3.6-4.4L130.3,66.1z"/>
<path id="XMLID_456_" class="st0" d="M32.6,60.6c-1.4,0.3-2.8,0.2-4.2-0.2c-1.4-0.5-2.6-1.2-3.6-2.4c-1-1.1-1.6-2.4-1.9-3.8
	c-0.3-1.4-0.2-2.8,0.2-4.2c0.4-1.4,1.2-2.6,2.3-3.6c0.9-0.8,1.8-1.3,2.9-1.7c1.1-0.4,2.2-0.5,3.3-0.3c0.1,0,0.2,0.1,0.3,0.1
	c0.1,0.1,0.1,0.2,0.1,0.3c-0.1,0.4-0.1,0.8-0.2,1.3c0,0.4-0.1,0.7-0.1,0.9c0,0.1-0.1,0.2-0.1,0.3c-0.1,0.1-0.2,0.1-0.3,0.1
	c-0.7-0.1-1.4,0-2.1,0.2c-0.7,0.2-1.3,0.6-1.8,1c-0.7,0.6-1.2,1.4-1.4,2.2c-0.3,0.9-0.3,1.8-0.1,2.7c0.2,0.9,0.6,1.7,1.2,2.4
	c0.6,0.7,1.4,1.2,2.3,1.5c0.9,0.3,1.8,0.3,2.7,0.2c0.9-0.2,1.7-0.6,2.4-1.2c0.5-0.4,0.9-1,1.2-1.6c0.3-0.6,0.4-1.3,0.5-1.9
	c0-0.2,0.1-0.4,0.3-0.5c0.1-0.1,0.2-0.1,0.4-0.1c0.2,0,0.5,0,0.8,0c0.4,0,0.7,0,1,0c0.2,0,0.4,0.1,0.5,0.2c0.1,0.1,0.1,0.2,0.1,0.3
	c0,1.1-0.3,2.2-0.7,3.2c-0.5,1-1.1,1.9-2,2.7C35.3,59.7,34,60.3,32.6,60.6z"/>
<path id="XMLID_453_" class="st0" d="M54.3,43.5c-1-0.5-1.9-1.2-2.6-2.1l-0.1-0.1c-0.6-0.7-1-1.4-1.3-2.3c-0.3-0.9-0.5-1.8-0.5-2.8
	c0-1,0.1-1.9,0.5-2.9c0.5-1.1,1-2.1,1.7-2.9c0.6-0.8,1.6-1.4,2.8-2l0.1,0c1.2-0.5,2.4-0.8,3.8-0.7c0.8,0,1.7,0.2,2.6,0.6
	c0.9,0.4,1.6,0.8,2.1,1.3c1.1,0.9,1.9,2.1,2.5,3.4c0.3,0.8,0.5,1.6,0.5,2.5c0,0.9,0,1.7-0.3,2.5c-0.2,0.6-0.4,1.2-0.7,1.8
	c-0.3,0.5-0.7,1.1-1.2,1.7c-0.9,1-2,1.7-3.2,2.2c-1.1,0.4-2.2,0.6-3.4,0.5C56.4,44.3,55.3,44,54.3,43.5z M62.9,38
	c0.2-0.6,0.3-1.1,0.4-1.6c0-0.8-0.1-1.5-0.3-2.2c-0.4-0.9-1-1.7-1.8-2.4c-0.8-0.6-1.8-1-2.8-1c-0.8,0-1.5,0.1-2.2,0.3
	c-0.6,0.2-1.2,0.6-1.7,1c-0.5,0.4-0.9,1-1.2,1.6L53,34.4c-0.2,0.6-0.3,1.2-0.3,1.9c0,0.6,0.1,1.2,0.3,1.8c0.3,0.7,0.7,1.3,1.2,1.9
	c0.6,0.6,1.2,0.9,2,1.2c1.2,0.4,2.4,0.4,3.6-0.1c0.8-0.3,1.5-0.8,2-1.4C62.3,39.2,62.7,38.6,62.9,38z"/>
<path id="XMLID_333_" class="st0" d="M84,38.3c-0.1-0.1-0.1-0.2-0.1-0.3l-0.1-15.3c0-0.1,0-0.2,0.1-0.3s0.2-0.1,0.3-0.1l4.8,0
	c1,0,1.8,0.2,2.6,0.7c0.8,0.4,1.4,1.1,1.9,1.8c0.5,0.8,0.7,1.6,0.7,2.6c0,0.8-0.2,1.5-0.5,2.2c-0.4,0.7-0.9,1.3-1.5,1.8
	c-0.1,0.1-0.1,0.2-0.1,0.3c0,0,0,0.1,0,0.1c0,0,0,0.1,0,0.1l2.7,5.9c0,0.1,0.1,0.2,0.1,0.3c0,0.2-0.1,0.3-0.3,0.3l-2,0
	c-0.2,0-0.3,0-0.4,0c-0.1,0-0.2-0.1-0.2-0.2l-2.5-5.4c0-0.1-0.1-0.2-0.2-0.2c-0.1,0-0.2-0.1-0.4-0.1l-1.8,0c-0.2,0-0.4,0-0.5,0.1
	c-0.1,0.1-0.1,0.2-0.1,0.3l0,5.1c0,0.1,0,0.2-0.1,0.3c-0.1,0.1-0.2,0.1-0.3,0.1l-1.8,0C84.2,38.4,84.1,38.4,84,38.3z M89,29.5
	c0.6,0,1.1-0.2,1.5-0.6c0.4-0.4,0.6-0.9,0.6-1.5c0-0.6-0.2-1.1-0.7-1.5c-0.4-0.4-1-0.6-1.5-0.6l-2.1,0c-0.3,0-0.4,0.2-0.4,0.5l0,3.4
	c0,0.1,0,0.2,0.1,0.3c0.1,0.1,0.1,0.1,0.3,0.1L89,29.5z"/>
<path id="XMLID_510_" class="st0" d="M113.7,40.9c-0.9-1.1-1.5-2.4-1.8-3.8c-0.3-1.4-0.2-2.9,0.3-4.3c0.5-1.4,1.3-2.6,2.4-3.5
	c1.1-1,2.4-1.6,3.8-1.9c1.4-0.3,2.8-0.2,4.2,0.3c1.1,0.4,2,1,2.9,1.7c0.8,0.8,1.5,1.7,1.9,2.8c0.1,0.1,0.1,0.2,0,0.3
	c0,0.1-0.1,0.2-0.2,0.2c-0.4,0.1-0.8,0.3-1.2,0.5c-0.4,0.2-0.7,0.3-0.8,0.3c-0.1,0.1-0.2,0.1-0.3,0c-0.1,0-0.2-0.1-0.2-0.2
	c-0.3-0.7-0.7-1.2-1.2-1.7c-0.5-0.5-1.1-0.8-1.8-1.1c-0.9-0.3-1.8-0.4-2.7-0.2c-0.9,0.2-1.7,0.6-2.4,1.2c-0.7,0.6-1.2,1.4-1.5,2.2
	c-0.3,0.9-0.4,1.8-0.2,2.7c0.2,0.9,0.6,1.7,1.1,2.4c0.6,0.7,1.3,1.2,2.2,1.5c0.6,0.2,1.3,0.3,1.9,0.3c0.7,0,1.3-0.2,1.9-0.5
	c0.2-0.1,0.4-0.1,0.5,0c0.1,0,0.2,0.1,0.3,0.2c0.1,0.2,0.2,0.4,0.4,0.7c0.2,0.3,0.3,0.6,0.5,0.8c0.1,0.2,0.1,0.4,0.1,0.6
	c0,0.1-0.1,0.2-0.2,0.3c-1,0.5-2,0.8-3.2,0.9c-1.1,0.1-2.2-0.1-3.3-0.4C115.8,42.8,114.7,42,113.7,40.9z"/>
<path id="XMLID_512_" class="st0" d="M139.4,54.4c-0.4-0.9-0.5-1.9-0.3-2.9c0.1-1,0.5-1.9,1.2-2.7l6.5-7.9c0.1-0.1,0.2-0.1,0.3-0.2
	c0.1,0,0.2,0,0.3,0.1l1.7,1.4c0.1,0.1,0.1,0.2,0.1,0.3c0,0.1,0,0.2-0.1,0.3l-6.5,7.9c-0.5,0.6-0.7,1.2-0.6,2c0.1,0.7,0.4,1.3,1,1.8
	c0.4,0.4,0.9,0.6,1.5,0.7c0.5,0.1,1.1,0.1,1.5,0c0.5-0.1,0.9-0.4,1.2-0.8l6.5-7.9c0.1-0.1,0.2-0.1,0.3-0.2c0.1,0,0.2,0,0.3,0.1
	l1.7,1.4c0.1,0.1,0.1,0.2,0.1,0.3c0,0.1,0,0.2-0.1,0.3l-6.5,7.9c-0.7,0.8-1.5,1.4-2.4,1.7c-1,0.3-2,0.4-3,0.2c-1.1-0.2-2-0.7-3-1.5
	C140.3,56.2,139.7,55.4,139.4,54.4z"/>
<path id="XMLID_331_" class="st0" d="M168.2,50.7c0,0,0,0.3,0,0.8c0,0.5,0,1.3-0.1,2.3c-0.2,2-0.8,4.9-2.9,8.1
	c-1,1.6-2.4,3.2-4.2,4.6c-1.8,1.4-4,2.7-6.6,3.5c-1.3,0.4-2.7,0.7-4.1,0.8c-0.4,0-0.7,0-1.1,0.1c-0.3,0-0.7,0-1,0
	c-0.8,0-1.5-0.1-2.3-0.2c-3-0.4-6.1-1.6-8.9-3.6c-0.7-0.5-1.4-1-2-1.6l-0.5-0.5l-0.1-0.1c0,0,0.2,0.2,0,0l-0.1-0.1l-0.2-0.2
	c-0.3-0.3-0.6-0.5-0.9-0.8c-1.3-1.1-2.5-2-3.8-3c-2.7-1.9-5.6-3.7-8.7-5.3c-3.1-1.6-6.4-3-9.9-4.1c-3.5-1.1-7.1-2-10.8-2.5
	c-3.7-0.5-7.6-0.8-11.4-0.7c-1,0-2,0.1-3,0.2c-1,0.1-1.9,0.1-2.9,0.3c-1.9,0.2-3.9,0.5-5.8,0.9c-3.9,0.8-7.7,2-11.4,3.5
	c-3.7,1.5-7.3,3.4-10.7,5.5c-1.7,1.1-3.3,2.2-4.9,3.5c-0.8,0.6-1.6,1.2-2.3,1.9l-1.1,1l-0.6,0.5l-0.1,0.1c0.1-0.1,0,0,0,0l-0.1,0.1
	L45.4,66c-3.4,3.4-7.9,5.4-12.5,5.9C32.3,72,31.7,72,31.1,72c-0.3,0-0.5,0-0.9,0l-0.8,0c-0.6,0-1.2-0.1-1.8-0.2
	c-0.6-0.1-1.1-0.2-1.7-0.3c-2.3-0.5-4.4-1.4-6.4-2.5c-3.9-2.3-7-5.9-8.6-10c-0.2-0.5-0.4-1-0.6-1.6l-0.1-0.4l-0.1-0.2l0-0.2l0-0.1
	l-0.1-0.4L10,55.8c-0.2-1.2-0.3-2.3-0.2-3.4c0.1-2.2,0.5-4.3,1.3-6.2c1.4-3.9,4.1-7.4,7.6-9.5c0.9-0.5,1.7-1,2.7-1.3l0.3-0.1
	l0.3-0.1c0.2-0.1,0.4-0.1,0.7-0.2c0.5-0.2,0.9-0.3,1.4-0.4c1.8-0.5,3.7-0.7,5.6-0.6c1.9,0.1,3.7,0.4,5.3,1.1
	c0.4,0.2,0.8,0.3,1.2,0.5c0.4,0.2,0.8,0.4,1.2,0.6c0.7,0.4,1.5,0.9,2.1,1.4c2.8,2,4.8,4.9,5.4,8c0.7,3.1,0.1,6.1-0.9,8.6
	c-2.1,5-6.1,8.1-9.8,9.1c-1.9,0.5-3.7,0.4-5.1,0c-1.4-0.4-2.5-1.1-3.3-1.7c-0.8-0.6-1.3-1.2-1.7-1.6c-0.3-0.4-0.5-0.6-0.5-0.6
	l0.2-0.2c0,0,0.2,0.2,0.5,0.6c0.4,0.3,0.9,0.9,1.7,1.4c0.8,0.6,1.8,1.1,3.2,1.5c1.3,0.3,3,0.4,4.7-0.2c3.4-1,7.1-4.1,9-8.8
	c0.9-2.3,1.3-5.1,0.6-7.8c-0.7-2.7-2.5-5.3-5-7c-1.3-0.9-2.7-1.7-4.2-2.2c-1.5-0.5-3.2-0.8-4.8-0.9c-1.7,0-3.4,0.2-5,0.6
	c-1.7,0.5-3.3,1.1-4.8,2.1c-3,1.9-5.3,5-6.5,8.5c-1.2,3.5-1.6,7.5,0.1,11.1c1.5,3.6,4.2,6.7,7.7,8.7c3.4,2,7.6,2.9,11.6,2.4
	c4-0.5,7.9-2.3,10.8-5.2c3-2.9,6.3-5.5,9.9-7.7c7-4.6,15-7.7,23.1-9.3c8.1-1.6,16.3-1.7,24.1-0.5c3.9,0.6,7.6,1.6,11.2,2.8
	c3.6,1.2,7,2.7,10.1,4.4c3.2,1.7,6.1,3.6,8.8,5.7c1.3,1,2.7,2.1,3.9,3.2c0.3,0.3,0.6,0.5,0.9,0.8c0.2,0.1,0.3,0.3,0.5,0.4l0.4,0.4
	c0.6,0.6,1.2,1.1,1.8,1.5c2.5,1.9,5.3,3,8.1,3.5c2.8,0.5,5.5,0.3,8-0.4c2.4-0.6,4.6-1.8,6.3-3.1c1.7-1.3,3.1-2.8,4.2-4.3
	c2.1-3,2.8-5.8,3.1-7.7c0.1-1,0.2-1.7,0.2-2.2c0-0.5,0-0.8,0-0.8L168.2,50.7z"/>
</svg>
